<?xml version="1.0" standalone="no"?>
<!DOCTYPE svg PUBLIC "-//W3C//DTD SVG 1.1//EN" "http://www.w3.org/Graphics/SVG/1.1/DTD/svg11.dtd" >
<svg xmlns="http://www.w3.org/2000/svg">
<metadata></metadata>
<defs>
<font id="freshregular" horiz-adv-x="508" >
<font-face units-per-em="2048" ascent="1638" descent="-410" />
<missing-glyph horiz-adv-x="500" />
<glyph horiz-adv-x="0" />
<glyph unicode="&#xd;" />
<glyph unicode=" " />
<glyph unicode="!" horiz-adv-x="672" d="M207 136q0 15 16 31l82 84q15 14 29 14q13 0 31 -16l80 -86q12 -16 12 -29q0 -15 -14 -31l-80 -88q-20 -20 -29 -20q-16 0 -29 14l-88 101q-10 13 -10 26zM264 1364q0 46 21 69t62 23q42 0 62.5 -23t20.5 -69l-80 -1036h-37z" />
<glyph unicode="%" horiz-adv-x="1825" d="M100 72q0 -21 15 -36t35 -15h653q21 0 36 15t15 36q0 20 -15 35t-36 15h-653q-20 0 -35 -15t-15 -35zM100 373q0 -21 15 -35q15 -15 35 -15h302q20 0 35 15q15 14 15 35t-15 36q-15 14 -35 14h-302q-20 0 -35 -14q-15 -15 -15 -36zM100 675q0 -21 15 -36t35 -15h201 q21 0 36 15q14 15 14 36q0 20 -14 35q-15 15 -36 15h-201q-20 0 -35 -15t-15 -35zM100 1026q0 -20 15 -35t35 -15h302q20 0 35 15t15 35q0 21 -15 36q-15 14 -35 14h-302q-20 0 -35 -14q-15 -15 -15 -36zM100 1378q0 -21 15 -36q15 -14 35 -14h1508q20 0 35 14q15 15 15 36 t-15 35q-15 15 -35 15h-1508q-20 0 -35 -15q-15 -14 -15 -35zM610 724q0 -189 137 -323q137 -132 332 -136q142 -2 227 58l301 -302v1q21 -22 51 -22t50 21q21 20 21 50t-21 51l-281 295q122 131 122 307q0 190 -138 324q-137 134 -332 134q-194 0 -332 -134 q-137 -134 -137 -324zM703 725q0 145 110 248q111 103 267 103t266 -103q111 -103 111 -248q0 -146 -111 -249q-110 -103 -266 -103t-267 103q-110 103 -110 249z" />
<glyph unicode="*" horiz-adv-x="1637" d="M100 693v40q7 142 43 142l117 7q0 18 49 111q-85 92 -85 104v6q8 39 110 140q70 59 101 65q18 0 55 -38l55 -51q83 38 101 38q0 147 17 147q58 24 138 24h26q134 -10 134 -28q7 0 12 -143q57 -20 104 -42q99 93 110 93h2q80 -23 176 -142q39 -52 39 -67q0 -14 -69 -87 q-24 -27 -24 -31q21 -37 42 -99h2q149 0 149 -19q24 -54 24 -136v-26q-8 -120 -24 -130q0 -13 -145 -16q0 -8 -40 -110q89 -91 89 -106v-4q-21 -61 -49 -61h-2q-22 0 -26 31q0 7 14 28q-91 97 -91 106v6q36 74 57 148q0 20 91 20l59 5q10 57 10 99q-3 100 -16 104 q-146 0 -146 16q-33 92 -61 140l-2 12q0 11 65 81l28 33q-61 93 -144 142q-101 -95 -112 -95h-4q-78 38 -132 55q-27 0 -30 38l-7 118q-59 10 -101 10q-50 0 -102 -12q0 -146 -18 -146l-73 -25l-71 -32h-6q-14 0 -94 79l-14 10q-98 -65 -142 -144q83 -90 83 -100v-10 l-30 -59q-17 -34 -37 -95q0 -16 -134 -16q-14 -32 -14 -98v-10q0 -43 10 -95h14q99 0 122 -37l37 -93q12 -22 16 -51q0 -32 -51 -79l-22 -25q56 -93 144 -144q67 73 108 73q10 0 91 -37q52 -14 69 -38q12 -22 12 -118h2q46 -12 104 -12q38 0 97 10q4 138 19 138 q92 29 158 69h10q12 0 78 -61l28 -24q68 43 158 43q23 0 27 -31q0 -28 -53 -28q-52 0 -126 -47l-10 -2q-15 0 -81 65l-29 20q-80 -42 -116 -49q-4 -140 -18 -140q-66 -20 -126 -20h-32q-126 6 -142 35q-5 7 -9 119q-8 8 -85 35q0 5 -28 14q-11 0 -78 -65q-18 -14 -26 -14 q-32 0 -142 106q-62 75 -67 105v2q0 18 45 59l32 39v2l-26 69q-9 49 -33 49q-24 6 -81 6h-4q-41 0 -41 42q-12 47 -12 90zM466 707v14q0 168 154 282q89 59 197 59q175 0 293 -162q52 -91 52 -187q0 -188 -176 -303q-84 -44 -173 -44q-179 0 -293 160q-54 89 -54 181z M523 713q0 -149 136 -246q80 -44 154 -44q156 0 254 146q38 78 38 144q0 155 -142 250q-73 42 -150 42q-151 0 -250 -142q-40 -75 -40 -150z" />
<glyph unicode="0" horiz-adv-x="1522" d="M100 1117l660 -794l661 794h-1321z" />
<glyph unicode="1" horiz-adv-x="1522" d="M100 323h1321l-661 794z" />
<glyph unicode="3" horiz-adv-x="1628" d="M100 700v30q0 276 216 498q218 202 484 202h34q247 0 467 -189q229 -225 229 -524v-4q0 -347 -299 -581q-198 -132 -397 -132h-34q-277 0 -498 216q-202 219 -202 484zM433 600q87 -23 255 -176l72 -76q61 97 182 235q138 140 174 157q19 17 77 41q-26 51 -26 121 q0 32 13 144q-194 -95 -373 -397l-58 -114h-4l-102 186z" />
<glyph unicode="4" horiz-adv-x="1628" d="M100 707v14q0 284 219 510q221 197 482 197h22q274 0 493 -205q212 -222 212 -496v-26q0 -270 -206 -491q-221 -210 -499 -210h-22q-268 0 -491 206q-210 223 -210 501zM470 470l108 -106l242 242l243 -242l108 108l-242 242v2l242 243l-108 106l-242 -241h-1l-244 241 l-106 -107l242 -242v-2z" />
<glyph unicode="&#x3c;" horiz-adv-x="970" d="M100 715q0 -25 18 -43l654 -654q18 -18 43 -18t43 18t18 43t-18 43l-611 611l613 613q17 17 17 43q0 25 -17 42q-18 18 -43 18q-26 0 -43 -18l-651 -650q-3 -2 -5 -5q-18 -18 -18 -43z" />
<glyph unicode="?" horiz-adv-x="1592" d="M100 782q0 -132 51 -253q49 -117 139 -207t207 -139q121 -51 253 -51q230 0 409 145l267 -268q10 -9 23 -9t23 9q9 10 9 23t-9 23l-282 283q-1 2 0 1q2 -3 -2 1l-4 3q-17 10 -31 -3q-171 -156 -403 -156q-122 0 -233 47q-107 45 -190 128t-128 190q-47 111 -47 233 q0 121 47 232q45 108 128 190q83 83 190 128q111 47 233 47q121 0 232 -47q108 -45 190 -128q83 -83 128 -190q47 -111 47 -232q0 -163 -82 -303q-13 -22 10 -35q22 -13 35 9q89 152 89 329q0 131 -51 253q-49 116 -139 206t-206 139q-121 51 -253 51t-253 -51 q-117 -49 -207 -139t-139 -206q-51 -121 -51 -253z" />
<glyph unicode="@" horiz-adv-x="1641" d="M100 1096q6 14 18 14h2q9 -4 42 -64h2l12 10q-29 50 -32 62v6q5 10 16 10q10 0 43 -62l14 6q0 7 -31 60v4q0 16 15 16h4q11 -4 74 -124l2 -18q0 -23 -18 -43q27 -49 32 -52l24 4h4q51 0 93 -72l4 -24v-2q-8 -63 -38 -63q60 -101 60 -108v-2l-30 -12l-67 122l-56 4 q31 -34 48 -34v-2l-6 -56q0 -130 125 -171q66 -18 99 -18v2q-58 93 -61 128q14 20 79 35q23 11 80 48q15 6 38 6q30 0 107 -24q22 0 22 26v16q0 77 -88 113q-17 6 -39 6q-90 0 -124 -99l-2 -28v-10l2 -2v-2l-2 -2h-2q-58 0 -89 -12h-2l-4 50q0 157 157 256q-12 82 -16 82 q-26 0 -69 44q-24 38 -24 65v16q0 72 83 110q18 61 70 95q44 22 69 22h22q67 0 126 -72h6q75 0 109 -89l4 -30q0 -69 -70 -107l16 -90q118 -30 179 -107q66 -90 66 -205v-4q0 -26 -6 -26q-18 6 -80 8l-2 2l2 6q0 96 -103 127l-26 2q-88 0 -123 -99l-2 -30q0 -30 20 -30 q79 28 107 28q49 0 99 -42q34 -16 80 -28l16 -12q-8 -44 -60 -125v-2q65 7 136 60q53 66 53 141q-5 34 -16 44v4q44 6 64 24v2l-46 -4l-10 2q-10 -11 -43 -76h-2q-30 10 -30 14l37 66q-41 21 -41 45l-2 14q0 45 40 64l31 6l42 -6l50 85q-10 20 -10 42q0 83 83 130l26 3 q44 0 52 -61v-14q0 -69 -74 -119q-22 -8 -33 -8l-20 4l-44 -78v-2q62 -48 62 -117q0 -173 -152 -311q-70 -52 -119 -69q36 -24 36 -58q-11 -58 -54 -58h-6q-23 0 -91 44l-14 8v-2q48 -59 48 -79q-10 -62 -62 -62q-38 0 -80 70q-8 7 -8 12h-2v-2l12 -66q0 -32 -33 -52 q-10 -6 -26 -6h-6q-53 0 -62 102l-4 4q-39 -66 -70 -90q-13 -8 -29 -8q-49 0 -58 60v4q0 19 32 59v2q-71 -31 -84 -31h-6q-57 8 -57 55l-2 2q0 42 51 62v2q-171 40 -252 125q-116 104 -116 241v20q0 97 54 155l-30 54l-14 -2h-10q-41 0 -79 83q-32 51 -32 60zM436 243v6 q5 43 30 43q21 0 28 -37v-4q-5 -44 -28 -44h-4q-19 0 -26 36zM551 1191q0 -59 66 -81l14 -2l10 2l20 -100q88 42 207 42l47 -6v2l-17 104q73 21 73 81v10q0 54 -64 78l-21 2l-18 -4q-42 75 -108 75h-14q-75 0 -113 -91q0 -28 -26 -28q-56 -24 -56 -80v-4zM565 119v10 q5 26 36 26q39 0 76 -54q6 -15 6 -27q-6 -28 -26 -28h-14q-38 0 -72 53q-6 11 -6 20zM669 760q7 30 28 30h2q29 -3 29 -30v-2q-6 -26 -23 -26h-10q-18 0 -26 28zM812 42q0 43 82 59h19q47 0 58 -39q0 -51 -95 -62q-64 8 -64 42zM963 772q0 21 30 28q25 0 30 -32 q0 -23 -32 -28q-22 0 -28 32zM1063 101v8q0 41 69 72l16 2q34 -5 34 -28v-2q0 -53 -76 -77h-18q-25 6 -25 25zM1204 255q0 42 40 53h4q18 0 21 -28q-12 -51 -39 -51h-6q-18 0 -20 26z" />
<glyph unicode="C" horiz-adv-x="1629" d="M100 85q0 -35 25 -60t61 -25h504q35 0 60 25t25 60v514q0 35 -25 60t-60 25h-504q-36 0 -61 -25t-25 -60v-514zM100 830q0 -35 25 -60t61 -25h504q35 0 60 25t25 60v514q0 35 -25 60t-60 25h-504q-36 0 -61 -25t-25 -60v-514zM160 85v514q0 25 26 25h504q26 0 26 -25 v-514q0 -25 -26 -25h-504q-26 0 -26 25zM160 830v514q0 25 26 25h504q26 0 26 -25v-514q0 -25 -26 -25h-504q-26 0 -26 25zM854 85q0 -35 25 -60t60 -25h504q36 0 61 25t25 60v514q0 35 -25 60t-61 25h-504q-35 0 -60 -25t-25 -60v-514zM854 829q0 -36 25 -60q25 -25 60 -25 h504q36 0 61 25q25 24 25 60v513q0 35 -25 60t-61 25h-504q-35 0 -60 -25t-25 -60v-513zM913 829v513q0 26 26 26h504q26 0 26 -26v-513q0 -26 -26 -26h-504q-26 0 -26 26z" />
<glyph unicode="G" horiz-adv-x="1751" d="M100 1395q0 -14 10 -24t24 -10h102q24 0 43 -15t24 -38l149 -850q1 -5 4 -19q12 -41 45 -68t75 -31h953q14 0 24 10t10 24t-10 24t-24 10h-942q-51 0 -65 49l-16 88h952q46 0 82 27q35 27 48 70q77 445 77 447q0 56 -39 96q-40 40 -97 40h-1143l-20 107q-13 43 -48 70 q-36 27 -82 27h-102q-14 0 -24 -10t-10 -24zM398 1157h1131q28 0 48 -20t20 -48q0 -12 -75 -428q-14 -48 -64 -48h-964zM542 136q0 -56 40 -96t97 -40q56 0 96 40t40 96q0 57 -40 96q-40 40 -96 40q-57 0 -97 -40q-40 -39 -40 -96zM610 136q0 28 20 48t49 20q28 0 48 -20 t20 -48t-20 -48t-48 -20q-29 0 -49 20t-20 48zM1257 136q0 -56 40 -96t96 -40q57 0 96 40q40 40 40 96q0 57 -40 96q-39 40 -96 40q-56 0 -96 -40q-40 -39 -40 -96zM1325 136q0 28 20 48t48 20t48 -20t20 -48t-20 -48t-48 -20t-48 20t-20 48z" />
<glyph unicode="H" horiz-adv-x="1625" d="M100 721q0 -19 13 -33q9 -9 20 -9q17 0 40 23l43 43l600 597l640 -645q25 -16 41 -16q11 0 19 7q13 14 13 33t-13 32l-638 646q-25 30 -63 30q-42 0 -64 -30l-638 -646q-13 -13 -13 -32zM307 137q0 -57 39 -97q40 -40 96 -40h237v413q0 30 21 51q21 22 50 22h129 q29 0 50 -22q21 -21 21 -51v-413h237q56 0 96 40q39 40 39 97v610q0 15 -10 25q-11 11 -25 11q-15 0 -25 -11q-11 -10 -11 -25v-603q0 -30 -21 -51t-50 -21h-159v349q0 56 -39 97q-40 40 -96 40h-143q-56 0 -96 -40q-39 -41 -39 -97v-349h-159q-29 0 -50 21t-21 51v603 q0 15 -10 25q-11 11 -25 11q-15 0 -26 -11q-10 -10 -10 -25v-610z" />
<glyph unicode="U" horiz-adv-x="1429" d="M100 31q0 -13 9 -22t22 -9q12 0 21 9t9 22v5q30 205 187 342q158 138 369 138q212 0 371 -140q158 -138 186 -345q0 -13 9 -22t21 -9q13 0 22 9t9 22q0 7 -3 13q-27 190 -147 327q-120 136 -300 183q127 51 205 164q80 116 80 257q0 188 -133 321t-320 133 q-188 0 -321 -133t-133 -321q0 -141 80 -257q78 -113 205 -164q-181 -47 -301 -185t-146 -330q-1 -4 -1 -8zM322 975q0 156 120 275q119 120 275 120q155 0 274 -120q120 -119 120 -275q0 -155 -120 -275q-119 -119 -274 -119q-156 0 -275 119q-120 120 -120 275z" />
<glyph unicode="_" horiz-adv-x="1226" d="M101 0l1011 2v114l-2 902z" />
<glyph unicode="d" horiz-adv-x="1447" d="M100 261v841q0 158 149 213q27 7 52 7h74l5 -4v-63l-5 -4h-77q-82 0 -121 -100l-5 -44v-854q0 -132 131 -176l45 -5h759q124 0 169 129q5 11 5 40v880q0 89 -102 127l-27 3h-74l-5 4v63l5 4h74q129 0 191 -138q10 -34 10 -63v-888q0 -130 -144 -213q-57 -20 -102 -20 h-759q-155 0 -228 151q-20 42 -20 110zM368 645v62l5 5h707l5 -5v-62l-5 -5h-707zM368 883v62l5 5h707l5 -5v-62l-5 -5h-707zM370 407v62l5 5h705l5 -5v-62l-5 -5h-705zM517 1360v62l5 5h409l5 -5v-62l-5 -5h-169v-67h134l5 -5v-62l-5 -5h-339l-5 5v62l5 5h134v67h-169z" />
<glyph unicode="g" horiz-adv-x="2125" d="M100 15l3 3v21q0 242 211 439q98 86 228 125v3q-152 66 -219 222q-36 84 -36 161q0 255 249 391q100 39 176 39q214 0 356 -193q71 -113 71 -234q0 -226 -220 -372l-35 -14l68 -27q212 -95 315 -303q56 -131 56 -240v-18l-6 -6h-83l-6 6v21q0 186 -160 353 q-164 139 -327 139h-56q-158 0 -321 -133q-114 -118 -139 -214q-27 -86 -27 -139v-27l-6 -6h-86l-3 3h-3zM382 995q0 -206 208 -309q74 -24 122 -24q213 0 314 223q12 44 18 107q0 193 -193 302q-85 30 -136 30q-198 0 -306 -199q-26 -80 -27 -130zM1014 1348v74l6 6h897 q66 0 101 -92v-1235q0 -66 -95 -101h-395l-6 6v74l6 6h374q30 4 30 30v1193q0 33 -33 33h-879zM1195 816v87l6 5h591l6 -5v-87l-6 -6h-591zM1195 1087v86l6 6h591l6 -6v-86l-6 -6h-591zM1350 528v87l6 5h436l6 -5v-87l-6 -5h-436z" />
<glyph unicode="l" horiz-adv-x="1705" d="M100 705v69q0 419 430 654q150 69 301 69h18q483 0 705 -499q34 -122 43 -249q0 -439 -439 -680q-171 -69 -318 -69q-262 0 -473 181q129 294 180 370l190 -267l51 -9q48 0 310 594l26 9l155 -78v9l-69 473l-422 -267q181 -51 181 -69q-175 -360 -207 -395h-8 q-112 223 -198 292h-17q-62 0 -103 -138l-198 -378q-138 179 -138 378z" />
<glyph unicode="p" horiz-adv-x="1783" d="M100 835q0 396 476 610q140 54 313 54q542 0 755 -521l18 -161q0 -422 -521 -628q-121 -37 -242 -37h-45l-153 18l-269 -170h-18v278q-314 235 -314 557zM405 817q24 -90 90 -90h27q71 0 89 99q-14 99 -98 99h-9q-84 0 -99 -108zM791 826q0 -61 72 -99h45q84 0 90 117 q0 65 -109 81q-68 0 -98 -99zM1186 817q18 -90 90 -90h18q90 12 90 90v18q-18 90 -90 90h-18q-90 -18 -90 -90v-18z" />
<glyph unicode="s" horiz-adv-x="1689" d="M100 847q0 79 77 126q0 15 291 49q94 13 94 27q13 0 104 198q65 136 85 147q43 34 85 34h17q91 0 139 -125l125 -249q27 -26 77 -26q266 -38 298 -45q55 -23 81 -74q13 -32 13 -55v-17q0 -65 -96 -145q-177 -170 -177 -177q-10 -18 -10 -40q55 -314 55 -332v-5 q0 -87 -100 -132q-20 -6 -40 -6h-5q-45 0 -132 53l-225 113l-11 2q-23 0 -151 -72q-181 -94 -196 -94l-25 -2h-3q-94 0 -136 106l-4 30v15l55 330v6q0 32 -78 98q-185 177 -186 188q-21 37 -21 74zM174 837q0 -30 64 -83q199 -193 200 -199q20 -43 20 -74l-56 -338v-2 q0 -47 54 -67l16 -2q25 0 137 64q192 100 206 100q8 4 30 4h4q40 0 153 -66q194 -100 200 -100l15 -2q48 0 67 56l2 13l-54 325v15q0 78 90 147l178 174q15 20 15 49q0 45 -55 66q-312 41 -340 51q-56 24 -79 71l-143 293q-23 24 -57 24q-51 0 -81 -85q-116 -238 -132 -260 q-49 -57 -136 -57q-256 -35 -281 -43q-37 -25 -37 -60v-14z" />
<glyph unicode="v" horiz-adv-x="1806" d="M100 786q0 -33 24 -55l752 -720h56l751 720q24 22 24 55v3q-1 34 -26 58q-24 23 -59 23h-3q-33 0 -57 -23l-658 -630l-659 630q-24 23 -56 23h-3q-35 0 -60 -23q-26 -25 -26 -61zM100 1344q0 -32 24 -55l751 -719h56l752 719q23 23 23 55v3q0 34 -25 58t-60 24t-59 -24 l-659 -630l-658 630q-25 24 -60 24t-59 -24q-26 -25 -26 -61zM875 570q12 -11 28 -11q17 0 28 11h-56zM876 11q11 -11 28 -11q16 0 28 11h-56z" />
<glyph unicode="x" horiz-adv-x="1624" d="M100 1118v2q0 55 63 55h243v100q0 110 120 151l24 2h530q75 0 125 -81q17 -32 17 -63v-109h245q61 -6 61 -48v-11q0 -35 -48 -46h-1330q-50 10 -50 48zM303 168v740q0 53 44 61l8 3q46 0 53 -57v-764q0 -44 57 -48h701q56 0 56 69v749q0 37 51 48q45 0 52 -54v-762 q0 -110 -120 -151l-24 -2h-734q-69 0 -120 72q-24 35 -24 96zM510 1175h610v89q0 61 -59 61h-492q-45 0 -59 -37v-113zM609 367v541q5 61 48 61h9q38 0 48 -50v-563q-10 -50 -48 -50h-9q-43 0 -48 61zM914 369v537q5 63 48 63h9q48 -10 48 -48v-567q-11 -48 -48 -48h-9 q-43 0 -48 63z" />
<glyph unicode="z" horiz-adv-x="1908" d="M100 960v48q0 292 333 408l47 10h86q183 0 380 -219q197 219 380 219h67q275 0 389 -342l10 -86v-38q0 -234 -418 -561l-428 -399q-659 600 -770 732q-76 115 -76 228z" />
<glyph unicode="{" horiz-adv-x="1406" d="M100 709v14l36 7h21l15 -14l-15 -14h-21zM193 702v21l22 22h14l21 -15q63 108 115 108q18 64 50 64l79 -21v7q14 129 107 129l43 -7q29 14 29 43q-29 11 -29 50l57 -15l129 36l108 -29q0 47 50 58l7 -7l-7 -8v-57q0 -56 28 -157q47 35 172 71l15 108q0 114 -65 114 q-36 -10 -36 -50v-43l15 -14l-7 36l21 21q22 -7 22 -43v-14q-6 -72 -43 -72q-43 0 -51 115q0 135 94 150l78 -14q36 37 36 71q-14 51 -57 51h-29v-15h36q16 0 21 -36l-7 -7l-7 7h-7l-22 -14h-28l-22 22v14q0 50 50 50h8q86 0 86 -93q-26 -86 -51 -86l8 -86v-208 q0 -21 -86 -21q100 -67 100 -143v-22l-14 -57l14 -57v-22q0 -76 -100 -143q86 0 86 -21v-208l-8 -86q51 -32 51 -107q-17 -72 -72 -72h-22q-50 0 -50 50v14l22 22h28l22 -14l7 7h7l7 -7v-8q0 -28 -57 -28l14 -15h15q57 8 57 58q0 37 -43 64l-93 -14q-66 37 -72 157 q0 108 65 108q29 -30 29 -72v-14q0 -37 -22 -43l-21 21l7 36l-15 -14v-43q12 -65 65 -65q36 0 36 94v35q0 129 -72 129q-38 0 -115 50q-28 -101 -28 -157v-50l7 -7v-8l-7 -7h-7q-43 18 -43 58l-108 -29l-136 36l-50 -15v8q0 17 29 50q-14 32 -29 35l-43 -7q-88 0 -114 136 q-38 -21 -86 -21l-43 71q-54 0 -100 94h-8l-21 -15h-14zM272 709q0 -33 107 -57q15 -45 36 -51h22q58 0 164 94l-71 14q-36 0 -43 -29l14 -43h-22l-107 43l-21 36q0 35 128 79h22l-14 -43q10 -29 21 -29h22l71 14q-103 89 -157 94h-29q-13 0 -43 -58q-75 0 -100 -50v-14z M522 537q9 -93 72 -93h7l43 14l-7 7l21 101q-14 35 -42 35l-15 -14l7 -36l-21 -57l7 -21l-7 -8h-7q-19 0 -29 58v35q0 55 57 72l86 -21l7 7v7l-64 57q-115 -53 -115 -143zM522 895q0 -92 115 -143q46 50 64 50v7l-14 14l-79 -21q-57 17 -57 72v35q0 39 36 58l7 -8v-7l-7 -7 v-7q21 -37 21 -72l-7 -21l7 -7h29l21 28l-21 101l7 7l-43 14h-7q-63 0 -72 -93zM666 480h7l14 57h-7l-14 -14v-43zM666 909l14 -14h7q-7 50 -21 50v-36zM673 444q7 -29 36 -29v7q7 22 43 22v-7l-15 -22v-7q12 -64 72 -64h28l65 14q-43 43 -43 72l7 7l43 -15h29q50 28 50 108 q0 96 -65 143q-86 -104 -86 -136q0 -29 -14 -29q-30 35 -43 86l-57 7l-22 -21l8 -50v-22q-15 -64 -36 -64zM673 988q25 0 36 -79v-7l-8 -50l29 -21h7q50 0 50 28q0 34 43 65q0 -68 101 -165q57 57 57 157q0 63 -50 94h-29l-43 -15l-7 22l43 57l-65 14h-28q-60 0 -72 -64v-7 l15 -22v-7q-31 0 -51 29q-23 -7 -28 -29zM680 695q0 -29 93 -43q79 11 79 35v8l-15 14h-28l-22 -14h-7l-21 21l21 21h7l22 -14h28l15 14v8q0 24 -79 35q-93 -14 -93 -43q0 -14 29 -14v-14q-29 0 -29 -14zM723 516l7 42h14q0 -47 72 -57v-21h21q17 0 36 57l-7 29v14 q52 0 57 -64q29 0 29 -15l-79 -21q-28 -36 -64 -36h-14q-72 14 -72 72zM723 916q16 72 72 72h14q19 0 86 -43q57 0 57 -21q-36 0 -43 -58l-43 -14v14l7 29q-19 57 -36 57h-21q0 -36 -50 -36l-22 -42h-14zM888 709l50 -7h36l14 14l-14 14h-36l-50 -7v-14zM988 659l7 -29 q51 50 86 50q57 -7 57 -28v-8l-57 8q-43 -15 -43 -58q0 -52 72 -64h28q84 0 100 107v22l-7 36l-21 -15v7l7 36l-7 29l21 -15l7 36v22q0 96 -114 107h-14q-72 -9 -72 -71q0 -45 57 -51h15l21 15h7v-15q-11 -28 -50 -28q-48 0 -93 50l-7 -29q32 0 57 -50v-14q-36 -50 -57 -50z M1110 716q11 36 43 36q35 -12 35 -43q-11 -36 -43 -36q-35 12 -35 43z" />
<glyph unicode="}" horiz-adv-x="1402" d="M100 71q0 75 50 108l-7 85v207q0 22 86 22q-100 67 -100 142v22l14 57l-14 57v22q0 75 100 142q-86 0 -86 22v207l7 86q-24 0 -50 85q0 93 86 93h7q50 0 50 -50v-14l-22 -22h-28l-22 15h-7l-7 -8l-7 8q5 35 21 35h36v15h-28q-43 0 -58 -50q0 -34 36 -72l79 14 q92 -15 92 -149q-7 -115 -49 -115q-38 0 -43 72v14q0 36 21 43l22 -22l-8 -35l15 14v43q0 40 -36 50q-64 0 -64 -114l14 -108q125 -35 171 -71q29 101 29 157v57l-7 7l7 8q50 -11 50 -58l107 29l128 -36l58 15q0 -39 -29 -50q0 -29 29 -43l42 7q94 0 108 -129v-7l78 22 q32 0 50 -65q52 0 114 -107l22 15h14l21 -22v-21l-21 -22h-14l-22 15h-7q-46 -93 -100 -93l-43 -72q-48 0 -85 22q-27 -136 -115 -136l-42 7q-15 -3 -29 -35q29 -33 29 -50v-8l-50 15l-136 -36l-107 29q0 -40 -43 -58h-7l-7 8v7l7 7v50q0 56 -29 157q-76 -50 -114 -50 q-71 0 -71 -129v-35q0 -93 35 -93q53 0 65 64v43l-15 14l8 -35l-22 -22q-21 6 -21 43v14q0 42 28 72q64 0 64 -107q-5 -121 -71 -157l-93 14q-43 -27 -43 -64q0 -50 58 -58h14l14 15q-57 0 -57 28v7l7 8h7l7 -8l22 15h28l22 -22v-14q0 -50 -50 -50h-22q-54 0 -71 71z M150 635q16 -107 100 -107h29q71 12 71 65q0 42 -43 57l-57 -7v7q0 21 57 28q34 0 86 -50l7 29q-22 0 -57 50v14q25 50 57 50l-7 29q-45 -50 -93 -50q-38 0 -50 28v15h7l22 -15h14q57 6 57 50q0 62 -71 72h-15q-114 -11 -114 -107v-22l7 -36l22 15l-8 -29l8 -36v-7l-22 15 l-7 -36v-22zM200 707q0 31 36 43q31 0 43 -36q0 -31 -36 -43q-31 0 -43 36zM400 528q0 -79 50 -107h28l43 15l7 -8q0 -28 -42 -71l64 -14h28q60 0 72 64v7l-14 22v7q35 0 42 -22v-7q29 0 36 29q-21 0 -36 64v21l7 50l-21 22l-57 -7q-13 -52 -43 -86q-14 0 -14 29 q0 32 -86 135q-64 -47 -64 -143zM400 714l14 -14h36l50 7v14l-50 7h-36zM400 914q0 -100 57 -157q100 97 100 164q43 -30 43 -64q0 -29 50 -29h7l28 22l-7 50v7q11 78 36 78q-5 22 -29 29q-19 -29 -49 -29v7l14 22v7q-12 64 -72 64h-28l-64 -14l42 -57l-7 -22l-43 15h-28 q-50 -31 -50 -93zM436 500q0 14 28 14q5 64 57 64v-14l-7 -28q19 -58 36 -58h21v22q72 10 72 57h14l7 -43q0 -57 -71 -71h-15q-35 0 -64 35zM436 921q0 21 57 21q66 43 85 43h15q55 0 71 -71l-7 -43h-14l-22 43q-50 0 -50 36h-21q-17 0 -36 -57l7 -29v-14l-43 14 q-7 57 -42 57zM536 685q0 -24 78 -35q93 14 93 43q0 14 -29 14v14q29 0 29 14q0 29 -93 43q-78 -11 -78 -35v-8l14 -14h28l22 14h7l21 -21l-21 -21h-7l-22 14h-28l-14 -14v-8zM685 614l8 -7l85 21q57 -17 57 -71v-36q-10 -57 -28 -57h-7l-7 7l7 22l-22 57l7 35l-14 15 q-28 0 -43 -36l22 -100l-7 -7l42 -14h8q62 0 71 93q0 89 -114 142l-65 -57v-7zM685 800q19 0 65 -50q114 51 114 143q-9 92 -71 92h-8l-42 -14l7 -7l-22 -100l22 -29h28l7 8l-7 21q0 35 22 71v7l-7 8v7l7 7q35 -18 35 -57v-36q0 -54 -57 -71l-78 21l-15 -14v-7zM700 536 l14 -58h7v43l-14 15h-7zM700 893h7l14 14v35q-14 0 -21 -49zM785 693q106 -93 165 -93h21q21 5 36 50q107 24 107 57v14q-25 50 -100 50q-29 57 -43 57h-28q-55 -4 -158 -93l72 -14h21q11 0 22 29l-15 43h22q128 -45 128 -79l-21 -36l-107 -43h-22l15 43q-7 29 -43 29z M1214 714l14 14h22l35 -7v-14l-35 -7h-22z" />
<glyph unicode="~" horiz-adv-x="1551" d="M100 1026q0 -22 16 -39q16 -16 39 -16h93l3 -17l26 -128l29 -141l4 -21l22 -107l10 -49v-9h2l21 -104l12 -59l1 -3q8 -41 50 -43v-1h721v1l4 -1q22 0 38 17q16 16 16 38q0 23 -16 39t-38 16q1 0 -4 0h-673l-3 18l-17 82h662q33 5 44 36l1 3l12 31l9 25l11 31l13 35 q-59 -17 -119 -17q-130 0 -237 73q-104 71 -152 188h-327l-14 72l-12 58h-1q0 6 0 3q-9 43 -52 44h-139q-23 0 -39 -16t-16 -39zM362 110q0 -46 32 -78t77 -32q46 0 78 32t32 78q0 45 -32 77t-78 32q-45 0 -77 -32t-32 -77zM723 1063q0 -151 107 -258q108 -107 259 -107 t259 107q107 107 107 258q0 152 -107 259q-108 107 -259 107t-259 -107q-107 -107 -107 -259zM834 1063q0 16 11 26q11 11 26 11h181v182q0 15 11 25q11 11 26 11t26 -11q11 -10 11 -25v-182h181q15 0 26 -11q11 -10 11 -26q0 -15 -11 -26q-11 -10 -26 -10h-181v-182 q0 -15 -11 -26q-11 -10 -26 -10t-26 10q-11 11 -11 26v182h-181q-15 0 -26 10q-11 11 -11 26zM994 110q0 -46 32 -78t77 -32q46 0 78 32t32 78q0 45 -32 77t-78 32q-45 0 -77 -32t-32 -77z" />
<glyph unicode="&#xa0;" />
<glyph unicode="&#x2000;" horiz-adv-x="749" />
<glyph unicode="&#x2001;" horiz-adv-x="1499" />
<glyph unicode="&#x2002;" horiz-adv-x="749" />
<glyph unicode="&#x2003;" horiz-adv-x="1499" />
<glyph unicode="&#x2004;" horiz-adv-x="499" />
<glyph unicode="&#x2005;" horiz-adv-x="374" />
<glyph unicode="&#x2006;" horiz-adv-x="249" />
<glyph unicode="&#x2007;" horiz-adv-x="249" />
<glyph unicode="&#x2008;" horiz-adv-x="187" />
<glyph unicode="&#x2009;" horiz-adv-x="299" />
<glyph unicode="&#x200a;" horiz-adv-x="83" />
<glyph unicode="&#x202f;" horiz-adv-x="299" />
<glyph unicode="&#x205f;" horiz-adv-x="374" />
<glyph unicode="&#x25fc;" horiz-adv-x="500" d="M0 0z" />
</font>
</defs>
</svg>
